<svg version="1.1" id="Layer_1" xmlns="http://www.w3.org/2000/svg" xmlns:xlink="http://www.w3.org/1999/xlink" x="0px" y="0px"
	 width="100%" viewBox="0 0 3487 1286" enable-background="new 0 0 3487 1286" xml:space="preserve">
<path fill="#FFFFFF" opacity="1.000000" stroke="none" 
	d="
M2422.000000,1288.000000 
	C1614.666626,1288.000000 808.333313,1288.000000 2.000000,1288.000000 
	C2.000000,859.333313 2.000000,430.666656 2.000000,2.000000 
	C1164.666626,2.000000 2327.333252,2.000000 3490.000000,2.000000 
	C3490.000000,430.666656 3490.000000,859.333313 3490.000000,1288.000000 
	C3134.333252,1288.000000 2778.666748,1288.000000 2422.000000,1288.000000 
M809.924805,687.009033 
	C802.801819,642.807922 795.678833,598.606812 788.474976,553.903931 
	C790.172607,553.903931 791.445801,553.732361 792.658569,553.930298 
	C805.455261,556.019409 818.227966,558.258118 831.034485,560.283630 
	C893.131775,570.104980 955.231628,579.911255 1017.347656,589.613098 
	C1025.223755,590.843262 1033.182251,591.818298 1041.136475,592.194519 
	C1048.214966,592.529297 1052.912109,588.278870 1055.916626,582.148254 
	C1058.842285,576.178711 1057.923462,570.543640 1054.240234,565.166809 
	C1050.103394,559.127747 1043.915405,557.179993 1037.115112,556.200928 
	C1021.967590,554.020020 1006.821899,551.819214 991.700562,549.464966 
	C954.559387,543.682251 917.430969,537.817749 880.300354,531.967407 
	C855.656494,528.084412 830.961853,524.485840 806.396851,520.154236 
	C790.591248,517.367188 780.649658,506.352509 778.125183,490.497711 
	C767.244934,422.165771 756.410461,353.826508 745.492493,285.500580 
	C744.076721,276.640594 742.773682,267.711700 740.511353,259.051666 
	C738.070374,249.708298 729.808472,244.761505 720.752991,246.084015 
	C711.954285,247.369019 705.837646,254.929214 705.991882,264.541534 
	C706.034363,267.191742 706.397766,269.855164 706.825256,272.478088 
	C711.159424,299.070801 715.570557,325.651001 719.895630,352.245148 
	C727.104309,396.569489 734.262146,440.902069 741.450134,485.229767 
	C742.854980,493.893524 744.300232,502.550720 745.779053,511.527893 
	C738.916382,510.238495 733.076965,508.985229 727.185791,508.061157 
	C699.907898,503.782379 672.614075,499.605103 645.328857,495.372559 
	C606.211670,489.304565 567.132324,482.976868 527.960510,477.285645 
	C515.619263,475.492645 504.300781,479.094147 494.861145,487.838959 
	C482.273254,499.500397 480.143829,514.268860 482.453400,530.080994 
	C485.578369,551.475708 489.222809,572.795532 492.745575,594.130798 
	C500.493805,641.056824 508.312286,687.971313 516.034058,734.901611 
	C516.165710,735.701843 515.440613,736.643127 515.339111,736.916199 
	C479.187988,731.252380 443.383606,725.653870 407.583008,720.031006 
	C371.105988,714.301758 334.633148,708.545776 298.157501,702.807739 
	C288.626251,701.308350 279.108765,699.707031 269.553406,698.379395 
	C259.390869,696.967468 252.103638,700.477051 248.466431,707.993469 
	C243.081360,719.121887 250.784439,732.243042 264.516602,733.991272 
	C287.609467,736.931213 310.588287,740.785950 333.592407,744.400208 
	C387.486176,752.867615 441.359161,761.467651 495.256653,769.911011 
	C512.221802,772.568726 523.426270,783.603088 526.069458,800.597412 
	C529.494751,822.621155 532.959656,844.639038 536.490845,866.645996 
	C544.396240,915.913757 552.328186,965.177246 560.320435,1014.431030 
	C561.330750,1020.657410 562.198181,1027.000000 564.140503,1032.960083 
	C567.006531,1041.754395 575.067078,1046.069946 583.751099,1044.429321 
	C593.140320,1042.655518 598.171509,1036.701660 598.152954,1027.009888 
	C598.146606,1023.699280 597.725525,1020.362183 597.201294,1017.084045 
	C592.841248,989.820190 588.406311,962.568359 584.006348,935.310852 
	C577.539124,895.247009 571.093872,855.179565 564.613464,815.117798 
	C562.730164,803.475647 560.758545,791.847717 558.770386,779.869751 
	C582.444885,783.502991 605.408936,786.944458 628.344849,790.564453 
	C676.316162,798.135620 724.247375,805.965027 772.245605,813.360229 
	C797.334106,817.225647 824.430725,801.578857 822.371094,768.639282 
	C822.183899,765.646179 822.121216,762.624573 821.645874,759.673340 
	C817.837891,736.027771 813.944519,712.395996 809.924805,687.009033 
M1219.799072,751.000000 
	C1219.799072,778.540405 1219.799072,806.080811 1219.799072,833.735291 
	C1237.810425,833.735291 1254.612549,833.735291 1272.160889,833.735291 
	C1272.160889,829.540771 1272.160889,825.938782 1272.160889,822.336853 
	C1272.161133,748.012451 1272.236938,673.687805 1272.029785,599.363953 
	C1272.011597,592.817688 1273.765869,588.276794 1278.838867,583.963989 
	C1296.102295,569.287781 1312.941406,554.112854 1329.976685,539.167236 
	C1331.614746,537.730164 1333.489136,536.562317 1335.629272,534.994385 
	C1337.883667,538.304626 1339.803833,540.987122 1341.584229,543.759338 
	C1361.386108,574.591553 1381.163940,605.439148 1400.952515,636.279846 
	C1441.609131,699.643433 1482.361938,762.945862 1522.778564,826.462219 
	C1526.697510,832.621216 1530.873535,834.784668 1538.028442,834.518066 
	C1553.338623,833.947571 1568.684937,834.343384 1584.016357,834.343384 
	C1587.236816,834.343384 1590.457397,834.343384 1595.885620,834.343384 
	C1525.313843,720.161560 1455.765015,607.634705 1386.521973,495.602753 
	C1387.190918,494.310425 1387.276855,493.941803 1387.506836,493.729004 
	C1449.156738,436.710632 1510.817017,379.703552 1572.467285,322.685547 
	C1572.939697,322.248779 1573.311401,321.687531 1573.661133,321.140350 
	C1573.831665,320.873322 1573.942261,320.490082 1573.897827,320.186066 
	C1573.855713,319.898071 1573.575317,319.644989 1573.399658,319.376617 
	C1573.163208,319.168854 1572.927979,318.780579 1572.690308,318.779144 
	C1557.362183,318.685822 1542.033813,318.571350 1526.705566,318.579102 
	C1517.716431,318.583618 1507.852417,316.507324 1499.979248,319.529022 
	C1491.763550,322.682190 1485.344238,330.693909 1478.348511,336.820160 
	C1412.407959,394.565277 1346.521362,452.371948 1280.564697,510.098663 
	C1278.278320,512.099792 1276.475464,515.343323 1271.612793,515.034302 
	C1271.612793,449.501892 1271.612793,384.381927 1271.612793,318.559113 
	C1262.395752,318.559113 1254.110962,318.519073 1245.826660,318.570251 
	C1237.309448,318.622864 1228.792969,318.764435 1219.798950,318.872864 
	C1219.798950,463.080109 1219.798950,606.040039 1219.799072,751.000000 
M2947.749756,736.807922 
	C2967.012451,703.652893 2975.494385,667.773560 2974.182617,629.610840 
	C2971.315186,546.190369 2930.347168,486.992706 2856.263916,451.501770 
	C2808.092285,428.424469 2757.000977,429.428894 2707.132568,446.573853 
	C2655.675781,464.264862 2615.195557,495.432739 2594.715332,548.299133 
	C2584.037842,575.861755 2576.954834,603.664124 2577.139893,633.706665 
	C2577.810547,742.690002 2577.403320,851.679993 2577.402588,960.667480 
	C2577.402588,964.596191 2577.402588,968.524902 2577.402588,972.282837 
	C2589.666260,974.261841 2618.768799,973.838684 2626.250488,971.530518 
	C2626.250488,902.279724 2626.250488,832.796814 2626.250488,761.403015 
	C2629.700928,765.053589 2631.902100,767.337769 2634.055176,769.666382 
	C2691.139648,831.404053 2760.570312,849.793457 2840.343018,825.561707 
	C2887.250977,811.312988 2921.317383,779.279907 2947.749756,736.807922 
M1866.581177,436.252411 
	C1848.964844,435.520294 1831.308228,433.673340 1813.741089,434.306580 
	C1784.352905,435.365936 1756.252441,442.927948 1731.294800,458.746490 
	C1672.105347,496.261932 1639.744629,550.733215 1634.511108,620.313843 
	C1629.949097,680.968994 1650.060181,733.671265 1691.241943,778.312256 
	C1708.693481,797.229614 1729.516602,811.235291 1753.579468,820.513428 
	C1771.757080,827.522339 1790.567993,831.393921 1809.906250,833.132263 
	C1868.281494,838.379944 1921.028809,825.161682 1965.875732,785.825317 
	C1986.691650,767.567200 2001.695923,745.136719 2014.247070,719.966980 
	C2000.151611,712.457581 1986.823364,705.356873 1973.672852,698.350891 
	C1966.391846,708.944214 1960.113159,718.769836 1953.153564,728.086853 
	C1920.861084,771.317871 1876.149170,789.738647 1823.717896,789.219238 
	C1742.514404,788.414612 1684.144287,718.935913 1684.951172,637.481201 
	C1798.661255,637.481201 1912.391602,637.481201 2025.847534,637.481201 
	C2026.255615,635.572266 2026.524048,634.924133 2026.510986,634.281677 
	C2026.416626,629.616943 2026.416870,624.943237 2026.108154,620.290955 
	C2023.613647,582.679138 2013.507324,547.551086 1991.575073,516.428894 
	C1961.197876,473.323181 1920.471558,446.075623 1866.581177,436.252411 
M2375.557373,820.572510 
	C2423.538330,800.831177 2457.904297,767.119202 2479.991455,719.834595 
	C2466.040527,712.388062 2452.897461,705.372681 2439.691895,698.324036 
	C2432.716064,708.477112 2426.423584,718.268433 2419.505615,727.595764 
	C2387.382568,770.906006 2342.788086,789.662903 2290.376709,789.168396 
	C2236.087158,788.656067 2196.177734,761.814453 2169.612549,715.113831 
	C2156.214355,691.560303 2151.156250,665.626282 2150.499756,637.776367 
	C2264.596191,637.776367 2378.051025,637.776367 2492.077881,637.776367 
	C2492.222168,635.018616 2492.572998,633.076782 2492.383301,631.189270 
	C2490.953857,616.968079 2490.635254,602.501465 2487.707520,588.587524 
	C2474.194092,524.361694 2437.516357,477.836426 2378.071533,449.984131 
	C2344.300293,434.160828 2308.214844,431.321533 2271.537109,434.793793 
	C2245.713867,437.238464 2220.992676,444.126709 2198.842041,457.834808 
	C2143.033447,492.372131 2110.724609,542.556641 2101.859131,607.523682 
	C2095.577637,653.555481 2103.767578,697.097412 2127.043945,737.429016 
	C2151.781250,780.291443 2185.958496,812.301514 2234.693848,825.559448 
	C2281.426270,838.272461 2328.156006,837.989136 2375.557373,820.572510 
M3054.039795,810.941711 
	C3054.039795,817.904785 3054.039795,824.867920 3054.039795,832.458008 
	C3070.834961,832.458008 3086.983154,832.458008 3104.111816,832.458008 
	C3104.111816,828.489868 3104.111572,824.913025 3104.111816,821.336243 
	C3104.114746,781.699463 3103.631348,742.054810 3104.279297,702.428589 
	C3104.768799,672.485596 3106.104248,642.525391 3108.136475,612.645874 
	C3111.238037,567.049133 3135.079834,532.682983 3169.620117,504.971039 
	C3182.611084,494.548340 3197.970215,490.559540 3214.736572,494.163116 
	C3216.949219,494.638641 3219.169189,495.079163 3221.620605,495.584167 
	C3229.987549,482.045929 3238.165039,468.814545 3246.557373,455.235840 
	C3225.083740,442.211578 3203.354736,437.700348 3180.009277,446.168915 
	C3154.609131,455.382629 3132.148682,469.446381 3113.132324,488.668182 
	C3089.672852,512.381531 3075.374756,541.644104 3064.083008,572.471252 
	C3056.946777,591.954346 3053.662598,612.100952 3053.854004,633.096069 
	C3054.388672,691.713623 3054.039795,750.339233 3054.039795,810.941711 
M460.652222,886.348022 
	C426.758728,852.454895 392.865631,818.561462 358.970673,784.669861 
	C357.087738,782.787109 355.302307,780.786743 353.278412,779.068542 
	C345.785065,772.707031 335.765137,772.822327 328.735229,779.240173 
	C322.097137,785.300232 321.488861,796.115417 327.488647,803.693481 
	C329.133484,805.771057 331.111237,807.591919 332.992859,809.473999 
	C384.767609,861.261597 436.548523,913.042969 488.335571,964.818237 
	C490.217499,966.699646 492.022766,968.702271 494.118713,970.317566 
	C504.342255,978.196716 518.383301,973.660950 522.292236,961.394775 
	C524.877625,953.281616 521.498108,947.200378 516.019104,941.721558 
	C497.895142,923.598755 479.773987,905.473083 460.652222,886.348022 
M828.651978,338.347626 
	C822.711365,332.528351 817.127136,326.278259 810.741760,320.996674 
	C802.384705,314.084290 792.256042,315.002899 785.642700,322.396027 
	C779.539612,329.218689 779.872620,339.237823 786.510559,346.897003 
	C787.815552,348.402832 789.283081,349.769257 790.694702,351.181000 
	C842.694458,403.186432 894.695007,455.191010 946.704041,507.187164 
	C948.584961,509.067596 950.396667,511.068665 952.508789,512.656921 
	C959.384338,517.827087 969.234985,517.221802 975.446777,511.426331 
	C981.491394,505.786865 982.970581,496.872589 978.519836,489.619843 
	C976.468628,486.277252 973.607178,483.362610 970.807800,480.558746 
	C923.784302,433.459991 876.712585,386.409393 828.651978,338.347626 
M404.983826,790.125244 
	C403.057159,798.983276 408.556549,804.589294 413.979004,810.040100 
	C438.416260,834.605469 462.949615,859.075195 487.459137,883.568542 
	C488.871399,884.979858 490.384003,886.290344 491.841309,887.656921 
	C499.981628,895.290771 511.950989,892.909302 517.248413,887.480774 
	C522.803345,881.788391 525.001587,870.075378 516.298584,861.421204 
	C489.602112,834.874817 463.174255,808.056702 436.340485,781.650574 
	C425.039734,770.529785 411.996307,773.791931 404.983826,790.125244 
M898.820312,503.308746 
	C901.260620,495.780670 898.825317,489.641235 893.470215,484.289307 
	C866.623962,457.459595 839.792114,430.615448 812.944275,403.787354 
	C812.005371,402.849121 811.025024,401.919556 809.938538,401.167114 
	C800.663635,394.743744 788.681519,397.944092 783.794983,408.113861 
	C780.149536,415.700745 781.551941,422.512054 788.728882,429.717651 
	C815.043457,456.137329 841.379944,482.535889 867.842346,508.807159 
	C878.662170,519.548828 889.366699,517.976685 898.820312,503.308746 
z"/>
<path fill="#F25F9D" opacity="1.000000" stroke="none" 
	d="
M810.001038,687.884521 
	C813.944519,712.395996 817.837891,736.027771 821.645874,759.673340 
	C822.121216,762.624573 822.183899,765.646179 822.371094,768.639282 
	C824.430725,801.578857 797.334106,817.225647 772.245605,813.360229 
	C724.247375,805.965027 676.316162,798.135620 628.344849,790.564453 
	C605.408936,786.944458 582.444885,783.502991 558.770386,779.869751 
	C560.758545,791.847717 562.730164,803.475647 564.613464,815.117798 
	C571.093872,855.179565 577.539124,895.247009 584.006348,935.310852 
	C588.406311,962.568359 592.841248,989.820190 597.201294,1017.084045 
	C597.725525,1020.362183 598.146606,1023.699280 598.152954,1027.009888 
	C598.171509,1036.701660 593.140320,1042.655518 583.751099,1044.429321 
	C575.067078,1046.069946 567.006531,1041.754395 564.140503,1032.960083 
	C562.198181,1027.000000 561.330750,1020.657410 560.320435,1014.431030 
	C552.328186,965.177246 544.396240,915.913757 536.490845,866.645996 
	C532.959656,844.639038 529.494751,822.621155 526.069458,800.597412 
	C523.426270,783.603088 512.221802,772.568726 495.256653,769.911011 
	C441.359161,761.467651 387.486176,752.867615 333.592407,744.400208 
	C310.588287,740.785950 287.609467,736.931213 264.516602,733.991272 
	C250.784439,732.243042 243.081360,719.121887 248.466431,707.993469 
	C252.103638,700.477051 259.390869,696.967468 269.553406,698.379395 
	C279.108765,699.707031 288.626251,701.308350 298.157501,702.807739 
	C334.633148,708.545776 371.105988,714.301758 407.583008,720.031006 
	C443.383606,725.653870 479.187988,731.252380 515.339111,736.916199 
	C515.440613,736.643127 516.165710,735.701843 516.034058,734.901611 
	C508.312286,687.971313 500.493805,641.056824 492.745575,594.130798 
	C489.222809,572.795532 485.578369,551.475708 482.453400,530.080994 
	C480.143829,514.268860 482.273254,499.500397 494.861145,487.838959 
	C504.300781,479.094147 515.619263,475.492645 527.960510,477.285645 
	C567.132324,482.976868 606.211670,489.304565 645.328857,495.372559 
	C672.614075,499.605103 699.907898,503.782379 727.185791,508.061157 
	C733.076965,508.985229 738.916382,510.238495 745.779053,511.527893 
	C744.300232,502.550720 742.854980,493.893524 741.450134,485.229767 
	C734.262146,440.902069 727.104309,396.569489 719.895630,352.245148 
	C715.570557,325.651001 711.159424,299.070801 706.825256,272.478088 
	C706.397766,269.855164 706.034363,267.191742 705.991882,264.541534 
	C705.837646,254.929214 711.954285,247.369019 720.752991,246.084015 
	C729.808472,244.761505 738.070374,249.708298 740.511353,259.051666 
	C742.773682,267.711700 744.076721,276.640594 745.492493,285.500580 
	C756.410461,353.826508 767.244934,422.165771 778.125183,490.497711 
	C780.649658,506.352509 790.591248,517.367188 806.396851,520.154236 
	C830.961853,524.485840 855.656494,528.084412 880.300354,531.967407 
	C917.430969,537.817749 954.559387,543.682251 991.700562,549.464966 
	C1006.821899,551.819214 1021.967590,554.020020 1037.115112,556.200928 
	C1043.915405,557.179993 1050.103394,559.127747 1054.240234,565.166809 
	C1057.923462,570.543640 1058.842285,576.178711 1055.916626,582.148254 
	C1052.912109,588.278870 1048.214966,592.529297 1041.136475,592.194519 
	C1033.182251,591.818298 1025.223755,590.843262 1017.347656,589.613098 
	C955.231628,579.911255 893.131775,570.104980 831.034485,560.283630 
	C818.227966,558.258118 805.455261,556.019409 792.658569,553.930298 
	C791.445801,553.732361 790.172607,553.903931 788.474976,553.903931 
	C795.678833,598.606812 802.801819,642.807922 810.001038,687.884521 
M681.252869,699.746948 
	C693.504944,711.998108 705.724854,724.281738 718.037170,736.471924 
	C720.385986,738.797363 722.876099,741.129456 725.689331,742.807495 
	C732.917664,747.119080 740.723511,745.920471 746.674805,740.013428 
	C752.760681,733.972839 753.907532,725.390564 749.138733,718.146790 
	C746.966919,714.847717 744.167297,711.903015 741.358826,709.090698 
	C690.267822,657.929199 639.134155,606.810364 587.999084,555.692871 
	C585.880737,553.575195 583.827637,551.340332 581.458496,549.535095 
	C573.891052,543.768616 564.310547,544.353394 557.831482,550.776917 
	C550.632874,557.913818 550.117798,566.896606 556.639404,574.990417 
	C558.720703,577.573486 561.192017,579.849548 563.548035,582.202942 
	C602.443848,621.056763 641.349609,659.900574 681.252869,699.746948 
M745.031677,632.214722 
	C719.554382,606.791321 694.081177,581.363953 668.592590,555.951843 
	C666.470642,553.836243 664.434204,551.566101 662.033936,549.811035 
	C654.321411,544.171631 645.006226,545.200745 638.617126,552.167419 
	C632.450745,558.891418 632.094421,567.639771 637.811401,574.905823 
	C639.246582,576.729919 640.976685,578.328369 642.622925,579.978943 
	C667.569397,604.990540 692.522339,629.995667 717.482422,654.993713 
	C719.129272,656.643066 720.718018,658.388428 722.552307,659.806396 
	C732.668091,667.626160 745.621399,663.728088 750.217651,651.737061 
	C752.983704,644.520569 750.249023,638.786926 745.031677,632.214722 
M641.172363,689.827637 
	C623.295471,671.951721 605.438354,654.055786 587.517517,636.224060 
	C585.175964,633.894165 582.736450,631.516174 579.943420,629.815735 
	C573.190613,625.704529 564.084106,626.790894 558.692505,631.939087 
	C553.387939,637.004211 551.599915,645.405701 555.036682,652.096313 
	C556.665283,655.266907 559.195557,658.094604 561.742676,660.654480 
	C586.848022,685.885132 612.035950,711.033630 637.225891,736.179993 
	C639.100952,738.051819 640.969177,740.053955 643.189941,741.432739 
	C649.339233,745.250305 655.813293,745.470520 662.073303,741.745117 
	C668.017151,738.207825 670.591797,732.780945 670.374329,725.818787 
	C670.205383,720.410034 667.633545,716.349548 664.028381,712.721741 
	C656.759521,705.407288 649.459656,698.123718 641.172363,689.827637 
z"/>
<path fill="#5B0F83" opacity="1.000000" stroke="none" 
	d="
M1219.799072,750.000000 
	C1219.798950,606.040039 1219.798950,463.080109 1219.798950,318.872864 
	C1228.792969,318.764435 1237.309448,318.622864 1245.826660,318.570251 
	C1254.110962,318.519073 1262.395752,318.559113 1271.612793,318.559113 
	C1271.612793,384.381927 1271.612793,449.501892 1271.612793,515.034302 
	C1276.475464,515.343323 1278.278320,512.099792 1280.564697,510.098663 
	C1346.521362,452.371948 1412.407959,394.565277 1478.348511,336.820160 
	C1485.344238,330.693909 1491.763550,322.682190 1499.979248,319.529022 
	C1507.852417,316.507324 1517.716431,318.583618 1526.705566,318.579102 
	C1542.033813,318.571350 1557.362183,318.685822 1572.690308,318.779144 
	C1572.927979,318.780579 1573.163208,319.168854 1573.399658,319.376587 
	C1573.575317,319.644989 1573.855713,319.898071 1573.897827,320.186066 
	C1573.942261,320.490082 1573.831665,320.873322 1573.661133,321.140350 
	C1573.311401,321.687531 1572.939697,322.248779 1572.467285,322.685547 
	C1510.817017,379.703552 1449.156738,436.710632 1387.506836,493.729004 
	C1387.276855,493.941803 1387.190918,494.310425 1386.521973,495.602753 
	C1455.765015,607.634705 1525.313843,720.161560 1595.885620,834.343384 
	C1590.457397,834.343384 1587.236816,834.343384 1584.016357,834.343384 
	C1568.684937,834.343384 1553.338623,833.947571 1538.028442,834.518066 
	C1530.873535,834.784668 1526.697510,832.621216 1522.778564,826.462219 
	C1482.361938,762.945862 1441.609131,699.643433 1400.952515,636.279846 
	C1381.163940,605.439148 1361.386108,574.591553 1341.584229,543.759338 
	C1339.803833,540.987122 1337.883667,538.304626 1335.629272,534.994385 
	C1333.489136,536.562317 1331.614746,537.730164 1329.976685,539.167236 
	C1312.941406,554.112854 1296.102295,569.287781 1278.838867,583.963989 
	C1273.765869,588.276794 1272.011597,592.817688 1272.029785,599.363953 
	C1272.236938,673.687805 1272.161133,748.012451 1272.160889,822.336853 
	C1272.160889,825.938782 1272.160889,829.540771 1272.160889,833.735291 
	C1254.612549,833.735291 1237.810425,833.735291 1219.799072,833.735291 
	C1219.799072,806.080811 1219.799072,778.540405 1219.799072,750.000000 
z"/>
<path fill="#5B1083" opacity="1.000000" stroke="none" 
	d="
M2947.353027,737.420166 
	C2921.317383,779.279907 2887.250977,811.312988 2840.343018,825.561707 
	C2760.570312,849.793457 2691.139648,831.404053 2634.055176,769.666382 
	C2631.902100,767.337769 2629.700928,765.053589 2626.250488,761.403015 
	C2626.250488,832.796814 2626.250488,902.279724 2626.250488,971.530518 
	C2618.768799,973.838684 2589.666260,974.261841 2577.402588,972.282837 
	C2577.402588,968.524902 2577.402588,964.596191 2577.402588,960.667480 
	C2577.403320,851.679993 2577.810547,742.690002 2577.139893,633.706665 
	C2576.954834,603.664124 2584.037842,575.861755 2594.715332,548.299133 
	C2615.195557,495.432739 2655.675781,464.264862 2707.132568,446.573853 
	C2757.000977,429.428894 2808.092285,428.424469 2856.263916,451.501770 
	C2930.347168,486.992706 2971.315186,546.190369 2974.182617,629.610840 
	C2975.494385,667.773560 2967.012451,703.652893 2947.353027,737.420166 
M2647.157471,723.670532 
	C2677.896484,771.194641 2741.747314,802.922607 2809.022705,786.771790 
	C2884.644531,768.617310 2934.657715,692.348755 2923.408203,613.961975 
	C2911.781982,532.949707 2839.479736,470.446442 2750.908447,483.593445 
	C2698.222412,491.413879 2660.154541,520.193420 2638.054443,567.498840 
	C2613.631836,619.776489 2616.803467,672.234802 2647.157471,723.670532 
z"/>
<path fill="#5B1084" opacity="1.000000" stroke="none" 
	d="
M1867.441650,436.396912 
	C1920.471558,446.075623 1961.197876,473.323181 1991.575073,516.428894 
	C2013.507324,547.551086 2023.613647,582.679138 2026.108154,620.290955 
	C2026.416870,624.943237 2026.416626,629.616943 2026.510986,634.281677 
	C2026.524048,634.924133 2026.255615,635.572266 2025.847534,637.481201 
	C1912.391602,637.481201 1798.661255,637.481201 1684.951172,637.481201 
	C1684.144287,718.935913 1742.514404,788.414612 1823.717896,789.219238 
	C1876.149170,789.738647 1920.861084,771.317871 1953.153564,728.086853 
	C1960.113159,718.769836 1966.391846,708.944214 1973.672852,698.350891 
	C1986.823364,705.356873 2000.151611,712.457581 2014.247070,719.966980 
	C2001.695923,745.136719 1986.691650,767.567200 1965.875732,785.825317 
	C1921.028809,825.161682 1868.281494,838.379944 1809.906250,833.132263 
	C1790.567993,831.393921 1771.757080,827.522339 1753.579468,820.513428 
	C1729.516602,811.235291 1708.693481,797.229614 1691.241943,778.312256 
	C1650.060181,733.671265 1629.949097,680.968994 1634.511108,620.313843 
	C1639.744629,550.733215 1672.105347,496.261932 1731.294800,458.746490 
	C1756.252441,442.927948 1784.352905,435.365936 1813.741089,434.306580 
	C1831.308228,433.673340 1848.964844,435.520294 1867.441650,436.396912 
M1741.347656,510.269684 
	C1713.413208,531.851257 1699.538574,561.834167 1689.759155,595.080139 
	C1784.466064,595.080139 1878.141724,595.080139 1971.726685,595.080139 
	C1971.951172,593.857056 1972.292969,593.162231 1972.154541,592.582275 
	C1964.190796,559.231262 1949.038330,530.373596 1920.580444,509.747009 
	C1869.179077,472.490784 1794.592773,469.160736 1741.347656,510.269684 
z"/>
<path fill="#5B1084" opacity="1.000000" stroke="none" 
	d="
M2374.869141,820.923767 
	C2328.156006,837.989136 2281.426270,838.272461 2234.693848,825.559448 
	C2185.958496,812.301514 2151.781250,780.291443 2127.043945,737.429016 
	C2103.767578,697.097412 2095.577637,653.555481 2101.859131,607.523682 
	C2110.724609,542.556641 2143.033447,492.372131 2198.842041,457.834808 
	C2220.992676,444.126709 2245.713867,437.238464 2271.537109,434.793793 
	C2308.214844,431.321533 2344.300293,434.160828 2378.071533,449.984131 
	C2437.516357,477.836426 2474.194092,524.361694 2487.707520,588.587524 
	C2490.635254,602.501465 2490.953857,616.968079 2492.383301,631.189270 
	C2492.572998,633.076782 2492.222168,635.018616 2492.077881,637.776367 
	C2378.051025,637.776367 2264.596191,637.776367 2150.499756,637.776367 
	C2151.156250,665.626282 2156.214355,691.560303 2169.612549,715.113831 
	C2196.177734,761.814453 2236.087158,788.656067 2290.376709,789.168396 
	C2342.788086,789.662903 2387.382568,770.906006 2419.505615,727.595764 
	C2426.423584,718.268433 2432.716064,708.477112 2439.691895,698.324036 
	C2452.897461,705.372681 2466.040527,712.388062 2479.991455,719.834595 
	C2457.904297,767.119202 2423.538330,800.831177 2374.869141,820.923767 
M2402.019043,522.979980 
	C2385.937012,506.880157 2366.808350,495.630249 2345.304688,488.681366 
	C2304.135742,475.377533 2263.978760,477.526123 2225.496094,498.276520 
	C2195.362305,514.524963 2175.867676,539.919006 2163.771240,571.430542 
	C2160.832275,579.086853 2158.325195,586.909058 2155.499756,594.998718 
	C2250.500977,594.998718 2344.182129,594.998718 2438.845947,594.998718 
	C2432.353760,567.861938 2421.975098,543.804443 2402.019043,522.979980 
z"/>
<path fill="#5B1083" opacity="1.000000" stroke="none" 
	d="
M3054.039795,809.951660 
	C3054.039795,750.339233 3054.388672,691.713623 3053.854004,633.096069 
	C3053.662598,612.100952 3056.946777,591.954346 3064.083008,572.471252 
	C3075.374756,541.644104 3089.672852,512.381531 3113.132324,488.668182 
	C3132.148682,469.446381 3154.609131,455.382629 3180.009277,446.168915 
	C3203.354736,437.700348 3225.083740,442.211578 3246.557373,455.235840 
	C3238.165039,468.814545 3229.987549,482.045929 3221.620605,495.584167 
	C3219.169189,495.079163 3216.949219,494.638641 3214.736572,494.163116 
	C3197.970215,490.559540 3182.611084,494.548340 3169.620117,504.971039 
	C3135.079834,532.682983 3111.238037,567.049133 3108.136475,612.645874 
	C3106.104248,642.525391 3104.768799,672.485596 3104.279297,702.428589 
	C3103.631348,742.054810 3104.114746,781.699463 3104.111816,821.336243 
	C3104.111572,824.913025 3104.111816,828.489868 3104.111816,832.458008 
	C3086.983154,832.458008 3070.834961,832.458008 3054.039795,832.458008 
	C3054.039795,824.867920 3054.039795,817.904785 3054.039795,809.951660 
z"/>
<path fill="#F2609E" opacity="1.000000" stroke="none" 
	d="
M461.151978,886.848267 
	C479.773987,905.473083 497.895142,923.598755 516.019104,941.721558 
	C521.498108,947.200378 524.877625,953.281616 522.292236,961.394775 
	C518.383301,973.660950 504.342255,978.196716 494.118713,970.317566 
	C492.022766,968.702271 490.217499,966.699646 488.335571,964.818237 
	C436.548523,913.042969 384.767609,861.261597 332.992859,809.473999 
	C331.111237,807.591919 329.133484,805.771057 327.488647,803.693481 
	C321.488861,796.115417 322.097137,785.300232 328.735229,779.240173 
	C335.765137,772.822327 345.785065,772.707031 353.278412,779.068542 
	C355.302307,780.786743 357.087738,782.787109 358.970673,784.669861 
	C392.865631,818.561462 426.758728,852.454895 461.151978,886.848267 
z"/>
<path fill="#F2609E" opacity="1.000000" stroke="none" 
	d="
M829.151733,338.847870 
	C876.712585,386.409393 923.784302,433.459991 970.807800,480.558746 
	C973.607178,483.362610 976.468628,486.277252 978.519836,489.619843 
	C982.970581,496.872589 981.491394,505.786865 975.446777,511.426331 
	C969.234985,517.221802 959.384338,517.827087 952.508789,512.656921 
	C950.396667,511.068665 948.584961,509.067596 946.704041,507.187164 
	C894.695007,455.191010 842.694458,403.186432 790.694702,351.181000 
	C789.283081,349.769257 787.815552,348.402832 786.510559,346.897003 
	C779.872620,339.237823 779.539612,329.218689 785.642700,322.396027 
	C792.256042,315.002899 802.384705,314.084290 810.741760,320.996674 
	C817.127136,326.278259 822.711365,332.528351 829.151733,338.847870 
z"/>
<path fill="#F25F9D" opacity="1.000000" stroke="none" 
	d="
M405.226685,789.401733 
	C411.996307,773.791931 425.039734,770.529785 436.340485,781.650574 
	C463.174255,808.056702 489.602112,834.874817 516.298584,861.421204 
	C525.001587,870.075378 522.803345,881.788391 517.248413,887.480774 
	C511.950989,892.909302 499.981628,895.290771 491.841309,887.656921 
	C490.384003,886.290344 488.871399,884.979858 487.459137,883.568542 
	C462.949615,859.075195 438.416260,834.605469 413.979004,810.040100 
	C408.556549,804.589294 403.057159,798.983276 405.226685,789.401733 
z"/>
<path fill="#F2609E" opacity="1.000000" stroke="none" 
	d="
M898.546265,504.030029 
	C889.366699,517.976685 878.662170,519.548828 867.842346,508.807159 
	C841.379944,482.535889 815.043457,456.137329 788.728882,429.717651 
	C781.551941,422.512054 780.149536,415.700745 783.794983,408.113861 
	C788.681519,397.944092 800.663635,394.743744 809.938538,401.167114 
	C811.025024,401.919556 812.005371,402.849121 812.944275,403.787354 
	C839.792114,430.615448 866.623962,457.459595 893.470215,484.289307 
	C898.825317,489.641235 901.260620,495.780670 898.546265,504.030029 
z"/>
<path fill="#FFF9FC" opacity="1.000000" stroke="none" 
	d="
M680.753052,699.246765 
	C641.349609,659.900574 602.443848,621.056763 563.548035,582.202942 
	C561.192017,579.849548 558.720703,577.573486 556.639404,574.990417 
	C550.117798,566.896606 550.632874,557.913818 557.831482,550.776917 
	C564.310547,544.353394 573.891052,543.768616 581.458496,549.535095 
	C583.827637,551.340332 585.880737,553.575195 587.999084,555.692871 
	C639.134155,606.810364 690.267822,657.929199 741.358826,709.090698 
	C744.167297,711.903015 746.966919,714.847717 749.138733,718.146790 
	C753.907532,725.390564 752.760681,733.972839 746.674805,740.013428 
	C740.723511,745.920471 732.917664,747.119080 725.689331,742.807495 
	C722.876099,741.129456 720.385986,738.797363 718.037170,736.471924 
	C705.724854,724.281738 693.504944,711.998108 680.753052,699.246765 
z"/>
<path fill="#FFFCFD" opacity="1.000000" stroke="none" 
	d="
M745.529053,632.746338 
	C750.249023,638.786926 752.983704,644.520569 750.217651,651.737061 
	C745.621399,663.728088 732.668091,667.626160 722.552307,659.806396 
	C720.718018,658.388428 719.129272,656.643066 717.482422,654.993713 
	C692.522339,629.995667 667.569397,604.990540 642.622925,579.978943 
	C640.976685,578.328369 639.246582,576.729919 637.811401,574.905823 
	C632.094421,567.639771 632.450745,558.891418 638.617126,552.167419 
	C645.006226,545.200745 654.321411,544.171631 662.033936,549.811035 
	C664.434204,551.566101 666.470642,553.836243 668.592590,555.951843 
	C694.081177,581.363953 719.554382,606.791321 745.529053,632.746338 
z"/>
<path fill="#FFFDFE" opacity="1.000000" stroke="none" 
	d="
M641.672485,690.327515 
	C649.459656,698.123718 656.759521,705.407288 664.028381,712.721741 
	C667.633545,716.349548 670.205383,720.410034 670.374329,725.818787 
	C670.591797,732.780945 668.017151,738.207825 662.073303,741.745117 
	C655.813293,745.470520 649.339233,745.250305 643.189941,741.432739 
	C640.969177,740.053955 639.100952,738.051819 637.225891,736.179993 
	C612.035950,711.033630 586.848022,685.885132 561.742676,660.654480 
	C559.195557,658.094604 556.665283,655.266907 555.036682,652.096313 
	C551.599915,645.405701 553.387939,637.004211 558.692505,631.939087 
	C564.084106,626.790894 573.190613,625.704529 579.943420,629.815735 
	C582.736450,631.516174 585.175964,633.894165 587.517517,636.224060 
	C605.438354,654.055786 623.295471,671.951721 641.672485,690.327515 
z"/>
<path fill="#FEFEFF" opacity="1.000000" stroke="none" 
	d="
M2646.753174,723.063477 
	C2616.803467,672.234802 2613.631836,619.776489 2638.054443,567.498840 
	C2660.154541,520.193420 2698.222412,491.413879 2750.908447,483.593445 
	C2839.479736,470.446442 2911.781982,532.949707 2923.408203,613.961975 
	C2934.657715,692.348755 2884.644531,768.617310 2809.022705,786.771790 
	C2741.747314,802.922607 2677.896484,771.194641 2646.753174,723.063477 
z"/>
<path fill="#FDFCFE" opacity="1.000000" stroke="none" 
	d="
M1741.918457,509.841156 
	C1794.592773,469.160736 1869.179077,472.490784 1920.580444,509.747009 
	C1949.038330,530.373596 1964.190796,559.231262 1972.154541,592.582275 
	C1972.292969,593.162231 1971.951172,593.857056 1971.726685,595.080139 
	C1878.141724,595.080139 1784.466064,595.080139 1689.759155,595.080139 
	C1699.538574,561.834167 1713.413208,531.851257 1741.918457,509.841156 
z"/>
<path fill="#FDFCFE" opacity="1.000000" stroke="none" 
	d="
M2402.523438,523.484985 
	C2421.975098,543.804443 2432.353760,567.861938 2438.845947,594.998718 
	C2344.182129,594.998718 2250.500977,594.998718 2155.499756,594.998718 
	C2158.325195,586.909058 2160.832275,579.086853 2163.771240,571.430542 
	C2175.867676,539.919006 2195.362305,514.524963 2225.496094,498.276520 
	C2263.978760,477.526123 2304.135742,475.377533 2345.304688,488.681366 
	C2366.808350,495.630249 2385.937012,506.880157 2402.523438,523.484985 
z"/>
</svg>